<svg version="1" xmlns="http://www.w3.org/2000/svg" width="682.667" height="682.667" viewBox="0 0 512.000000 512.000000"><path d="M307.5 6c-49.9 5.5-94.4 22.4-134.5 51-39.3 28-72.6 62.1-92.9 95C62 181.2 48.2 219.2 41 259.5c-3.8 21.3-5.2 38.3-5.3 62.5-.1 24.8.9 35.8 4.8 55.6 11.1 55.6 43.1 94.9 94.3 115.9 27.4 11.2 52.8 15.5 90.2 15.5 42 0 72.9-6 108.5-21.2 24.7-10.5 60.7-29.8 79.7-42.5 4.3-2.9 4.3-2.9 8-16.6l3.7-13.8-3.2-2.9c-1.8-1.6-3.5-3-3.9-3-.3 0-4.2 2.1-8.5 4.6-32.6 19.4-55.1 31-70.5 36.2-57.8 19.9-118.4 16.4-156.3-9.1-20.6-13.9-38-39.6-44.9-66.3-6-23.2-8.4-55.6-6.7-90.6 2.5-52.1 9.2-91.3 22.2-129.5 10.1-29.8 21.5-49.1 39.8-67.4 25.1-25 50.1-36.4 90.1-41 13.3-1.5 47.1-.6 60 1.6 29 4.9 53 14.3 69.4 27.1 9.4 7.4 9.1 6 8.8 43.7-.2 24.1 0 33.3.9 34.3 1.5 1.9 20.2 2 21.6.1.5-.6 1.9-8 3.2-16.2 3.7-24.9 11.4-57.9 20.2-86.8 1.7-5.4 2.9-10.8 2.7-11.9-.4-2.4-8.9-7.5-21.8-13.1-16-6.8-43.3-13.6-69-17.2-13.4-1.9-59.2-2.8-71.5-1.5z"/></svg>