<svg xmlns="http://www.w3.org/2000/svg" xmlns:xlink="http://www.w3.org/1999/xlink" style="display:none"><symbol id="icon-fb" viewBox="56.4 49.9 15 27.9"><path fill="none" d="M62.3 71.4c.1 0 .1-.1.1-.2-.1 0-.1.2-.1.2zM62.4 71.2c.1 0 .1-.1.1-.2-.1 0-.1.2-.1.2zM62.3 71.4c-.1.1 0 .2 0 0z"/><path fill="none" d="M64.6 55c.3-.1.6-.4.9-.5.4-.2.8-.3 1.2-.5.6-.2 1.1-.4 1.7-.4.2 0 1 .1 1.1 0-.1.1.2-1.1.2-1.1 0-.6-.1-.4-.6-.6-1.4-.5-3.4-.2-4.8-.1-.8.1-1.4.4-2 .9-.3.2-.5.3-.7.7 0 .1-.3.9-.1.7.4-.2.5-.5 1-.5 0 .7-.4 1.9-.7 2.5-.2.4-.4.5-.5 1-.1.4 0 .9 0 1.4 0 .3-.2.9-.1 1.2.1.3.4.5.5.9.2.9-.4.9-1.1 1-.6 0-2-.3-2.2.2-.5 1.3 1.1 1 1.8.9.8-.1 1.4-.1 1.6.7.1.3-.3 1.9.2 2 .2-.6 1.4-1.9 1.5-.6.1.5-1 2.3-.7 2.5.1-.4.7-.9 1-.6.3.3-.2 1.1-.3 1.4-.2.5-.4 1-.5 1.5-.2.5-.6.9-.6 1.4.5-.2.7-.8 1 0 .1.5-.4 1.3-.6 1.8-.2.6-.6 1-.5 1.5l.4.4c.1.3-.2.8-.3 1.1.6 0 1.3-.3 1.8-.4.6-.1.4.1.4-.6v-2c0-1.2-.1-2.4-.1-3.6 0-1.2 0-2.5.1-3.7.1-.7.1-2 .8-2.3.6-.3 1.5.1 2-.4.4-.4.5-1.8.5-2.3-1.1.3-3.3.9-3.7-.5-.2-.7-.1-1.7-.1-2.5.1-.9.4-1.6.5-2.5z"/><path d="M68.2 55.2c.6 0 1.5.1 2.1-.1.7-.3.8-.6 1-1.3.2-1 .4-1.8-.3-2.6-1.4-1.7-5.5-1.3-7.4-.8-1 .3-1.8.8-2.6 1.5-.9.8-1.1 1.6-1.1 2.8 0 1.3 0 2.8.2 4.1.1 1 .1 1-1 1.2-.5.1-2 0-2.3.4-.5.5-.1 2.6.3 3.2.2.2.8.6 1.1.6.4.1 1.8-.2 2.1.1.2.1 0 1.8 0 2.1 0 .8.1 1.5.1 2.3 0 1.3 0 2.6.2 3.9 0 .2.2.6.2.8 0 .2-.3.4-.3.6-.1.5-.2.9 0 1.4.1.2.5.5.5.6.1.6-.3.4-.4.7-.7 2.3 4 .4 4.8.1.3-.1.4-.1.7-.1.5-.1.6-.1.8-.5.2-.4.1-.9 0-1.4v-2c0-2.7 0-5.4-.3-8.1.7-.1 1.8.1 2.4-.3.6-.4.6-1.3.7-2 .2-.9.7-2.5-.1-3.3-.5-.4-1.1-.2-1.7-.1-.3.1-.6.2-1 .2-.7.1-.6.1-.7-.5-.1-.6-.3-1.8-.1-2.4.2-.6.3-.5 1-.7.2-.2.7-.3 1.1-.4zM64.4 60c.6 1.3 2.5.8 3.7.5 0 .6-.1 1.6-.4 2.1-.3.5-.3.4-1 .5-.3 0-.7 0-1 .1-.8.3-.9 1.5-1 2.3-.1 1.2-.1 2.5-.1 3.7 0 1.2.1 2.4.1 3.6v1.9c.1.7.1.6-.3.8-.4.2-1.5.4-2 .4.2-.5.3-.8.3-1.3 0-.2-.4-.1-.5-.3-.1-.5.7-1.7.9-2.2.2-.5.6-1.7-.4-1.2-.1 0-.6.7-.6.7.1 0 1-2.5 1-2.5.2-.5.7-1.3.7-1.8-.1-.9-.8-.7-1 .1-.3-.2.8-2.1.7-2.5-.1-1.3-1.4-.1-1.5.6-.5-.1-.1-1.7-.2-2-.2-.8-.9-.7-1.6-.7-.6 0-2.1.4-1.8-.7.1-.6.3-.4.9-.4.4 0 .9.1 1.3 0 .7 0 1.2-.1 1.2-.8 0-.4-.3-.6-.4-.9-.1-.4 0-.9 0-1.3s-.1-.9 0-1.4c.1-.6.2-.5.5-1 .3-.6.7-1.8.7-2.5-.6 0-.6.3-1 .5-.3.1.1-.8.1-.8.3-.4.7-.7 1.2-1 .9-.5 1.6-.6 2.7-.7 1-.1 1.9-.1 2.9.1.2 0 1.2.1 1.3.3.1.1-.1 1.2-.2 1.3-.3.3-.8.2-1.4.2-.8.1-1.6.4-2.3.7-1 .4-1.4.6-1.7 1.7-.2 1.1.2 2.6.2 3.9z"/></symbol><symbol id="icon-insta" viewBox="0 0 21.9 21.3"><path fill="none" d="M6.5 3c0 .2.1.3.2.5 0-.3-.1-.4-.2-.5zM6 9.7c-.3 1-.3 2 .1 3.2 0 0 0 .1.1.1.6 1.7 2.1 2.4 3.7 2.8.5.1 1 .2 1.5.2.8 0 1.5-.2 2.1-.5.2-.1.3-.1.5-.2.7-.4 1.3-1.1 1.7-1.9.4-.8.5-2 .4-3v-.1c0-.1 0-.3-.1-.4 0-.1 0-.2-.1-.4v-.2c0-.1-.1-.2-.1-.3 0-.2-.1-.3-.1-.4-.2-.6-.2-.7-.2-.8h-.1c-.1 0-.3-.1-.8-.4-.2-.2-.5-.3-.7-.4-.1 0-.3-.1-.4-.1h-.1s0 .1.1.1.1.1.2.1c.3.2.6.3.8.5.4.4.6 1.1.8 1.7v.3c.2 1.1.2 2.6-.3 3.5-.8 1.6-3 2.4-5 2.1-.9-.1-1.8-.5-2.3-1.2-3-3.6.2-8.1 4.1-7.6.5.1 1.1.2 1.6.5 0-.5-.4-.8-.9-1-.4-.1-.9-.2-1.5-.2-.8 0-1.6.2-2.1.3-.3.1-.5.3-.8.5-1 .9-1.7 1.9-2.1 3.2zM4.2 3.8c.1 0 .1 0 .2.1h.2c-.5.2-.4 1.2-.5 1.6h.1c.4-.1.8-.1 1.2-.1h.1c-.2-.6-.2-1.3-.2-2 0-.3-.4-.6-.4-.7.5.1.5-.6.3-1 0-.1-.1-.2-.2-.2-1-.4-1 .7-.9 1.5.1.3.1.6.1.8zM3.7 2.7c.2-.1.1-.3-.1-.4h-.1c-.1.1-.1.5.2.4zM3.6 3.2c-.1.1-.1.6.1.6.1-.1.2-.6-.1-.6z"/><path fill="none" d="M11.4 9.6c-.1 1.3 1.3 1.7 2.4 1.7.4-.2.7-.8.7-1.5 0-.4 0-.8-.2-1.1 0-.1-.1-.1-.1-.2s-.1-.1-.1-.2c-.5-.7-1.2-.5-1.9-.7v.3c-.1.5-.6.8-.7 1.4-.1.1-.1.2-.1.3zM3.5 1.8c.1.1.1.1.2.1v-.3h-.2v.2c0-.1 0 0 0 0zM9.1 11.5c-.1 0-.1.1 0 0zM7.2 5.4c1.9-.2.5-.2.5-.9h.5V2.7c0-.4-.1-.4-.2-.4h-.2c-.1 0-.1 0-.1-.1.3-.4.3-1 0-.9-.1 0-.2.1-.3.2.2.1 0 .2-.1.4-.1.1-.1.1-.1.2 0 .8-.2 1.8-.1 2.6 0 .3 0 .5.1.7zM11 7.4c0-.1 0-.1.1-.2-.2 0-.3.1-.3.2 0 .3.2.6.4.6-.1-.2-.2-.4-.2-.6zM14.3 11.2c-.1 0-.2.1-.3.5.1-.1.3-.1.4-.2 0-.2-.1-.3-.1-.3zM3.6 4.1c-.1.4 0 .4-.1.7.3.1.3-.7.1-.7zM19.2 1.9c-.1 0-.3-.1-.4-.1-.3-.1-.5-.1-.8-.1h-.9c-.6 0-1.3.1-1.8 0-1.3-.1-1.9-.2-3.1.4-.1 0-.2.1-.3.2-.5.4-1.4 1.1-1.8 1 .6-.8 1.7-1 2.4-1.7H9.4c.2 1.2.2 2.4.1 3.6h.2c1.2 0 6.2.2 7.8 0 .3 0 .5-.1.5-.1-1.2-.4-2.1-.6-1.4-2.3.1-.4.2-.6.3-.7.1-.1.3-.1.9-.2.3-.1.9-.2 1.2 0 .6.3.9 1.6.5 2.4 0 .1-.1.2-.2.2-.3.3-.8.5-1 .6-.1 0-.1.1-.1.1.6.1 1.2.3 1.8.4h.1c.1-1.1.3-2.1.1-2.8-.1-.4-.4-.7-1-.9zm-3.9.6c0-.1.1-.1 0 0zm-3.3.8c-.2.3-.5.5-.8.6V4c0 .1-.2 0 0 0h.1c0-.1.1-.1.2-.2 0-.3.3-.4.5-.5zm.1 0c.1-.1.1 0 0 0zm.1-.1c0-.1.1-.1 0 0zm.6-.6c.3-.3.6-.5 1-.6.1 0 .3-.1.4-.1 0-.1.1-.1 0 0 0 0-.1 0-.1.1-.3.3-.8.4-1.3.6.1.1-.1 0 0 0zm2.4-.1c-.4.2-.7.5-1.1.7 0 0-.1 0-.1.1-.1 0-.2.1-.3.1h-.1c.2-.4 1.2-.9 1.6-.9zm-.5 1.9c-.3.1-.5.3-.7.4-.1.1-.3.1-.4.1h-.1c0 .1-.2.1 0 0 .3-.5 1.5-1.2 2.2-1.3-.1.2-.5.5-1 .8zM2.1 3.6c-.5.4-.6.7-.6 1.2v.9c.3-.1.7-.1 1.1-.2-.4-.6-.2-1.3-.5-1.9z"/><path fill="none" d="M20.1 8.6v-.9-.2c-.1-.3-.1-.4-.3-.5-.2-.1-.5-.1-1-.2-.6-.1-2.2-.4-2.7-.1.2.2.4.3.6.5 2.9 3 .4 9.2-3.4 9.9-2.6.5-6.1-.1-7.7-2.5-.3-.4-.5-.9-.6-1.5-.4-2 .5-4.6 1.5-6.1h-.2c-1.5-.1-3.1-.2-4.6-.2.5 2.5.7 5.3.7 7.9v.2c0-.1.6-.5.8-.6.7.9-1.2 3.3-.6 4.1l.1.1c.2-.6.9-1.9 1.5-2.2.1 0 .1-.1.2-.1-.1.3-1.2 2.9-1.3 3.6v.2c.6-.4 2.6-2.9 3.2-2.9h.1c0 .8-.9 1.8-1.4 2.6v.1c1.3.4 1.1-.9 1.9-1.5.4-.3.6-.4.7-.4.4 0-.4 1.2-.6 1.8v.1c.9 0 1.4-.1 2-.5.5-.3.1-.9.8-.9h.1c.1.5.1.8-.1 1.2 0 0 0 .1-.1.1h1.8c1.1 0 2.3-.1 3.4-.1.5 0 1.2.1 1.8.1.6 0 1.2 0 1.7-.1.8.3 1.2 0 1.1-.9v-.2c.1-.5.1-1.2.2-1.7.1-.3.2-.7.2-1.1.4-2.3.1-4.8.2-7.1zM1.7 3.5c.2-.2.4-.6.6-1 .1-.4.2-.7.2-.9-.3.1-.4.2-.6.3l-.1.1-.4.4c0 .4 0 .8.1 1.2.1 0 .1 0 .2-.1zM1.8 1.7c-.3-.1-.6.2-.4.4.1-.2.4-.2.4-.4z"/><path fill="none" d="M2.7 1.7l.1-.1h-.4c0 .2.2.3.3.1z"/><path d="M14.2 1.9c-.1 0-.3.1-.4.1-.3.1-.7.3-.9.6.4-.2.9-.3 1.3-.7-.1 0 0 0 0 0zM13.5 4.9h.1c.1 0 .2-.1.4-.1.2-.1.5-.2.7-.3.4-.2.8-.5 1-.8-.7 0-1.9.7-2.2 1.2z"/><path d="M21.6 5c0-1 .1-3.4-.8-4.2-.8-.7-3.6-.4-4.6-.4C12.4.2 8.7.1 4.9 0 3.1-.1.5-.1.2 1.9c-.4 2.5.2 5.7.4 8.2.2 2.5-1.3 9.3 1.3 10.7 1.2.6 3.6.4 4.9.3 2.3-.1 4.5-.2 6.8-.1 2 .1 4 .2 6.1 0 1.9-.2 2-.5 2.2-2.3.4-4.5-.4-9.1-.3-13.7zM7.2 2.1c0-.1 0-.1.1-.2.1-.2.3-.3.1-.4.1-.1.2-.2.3-.2.3-.1.3.5 0 .9 0 .1.1.1.1.1H8c.1 0 .2.1.2.4v1.8h-.5c0 .7 1.4.7-.5.9-.1-.2-.1-.4-.1-.7-.1-.8.1-1.8.1-2.6zm1.7 3.8c.5-.1 1.3-.3 2.1-.3.5 0 1.1 0 1.5.2.5.2.9.5.9 1h.1c.1 0 .3.1.4.1.2.1.5.2.7.4.5.3.7.3.8.4h.1c0 .1 0 .2.2.8 0 .1.1.3.1.4 0 .1.1.2.1.3v.2c.1.2.1.3.1.4 0 .1 0 .3.1.4v.1c.1 1.1 0 2.2-.4 3-.4.8-1 1.4-1.7 1.9-.2.1-.3.2-.5.2-.7.3-1.4.5-2.1.5-.5 0-1-.1-1.5-.2-1.7-.4-3.1-1.1-3.7-2.8 0 0 0-.1-.1-.1-.3-1.1-.3-2.2-.1-3.1.3-1.2 1.1-2.3 2.1-3.1.3-.3.5-.5.8-.7zm-2.2-4c0 .3-.1.7-.1.7-.1-.4-.1-.7-.1-1 .2 0 .2.1.2.3zm0 1.6c-.1-.2-.2-.3-.2-.5.1.1.2.2.2.5zm0 1.3c-.1.1-.1 0-.1-.2.1-.1.1.1.1.2zm-.2.2c.2 0 .2.3.1.4 0 0-.1.1-.3-.1.1-.1.2-.2.2-.3zM5 1.5c.1 0 .2.1.2.2.2.4.2 1.1-.3 1 0 .1.4.4.4.7 0 .7 0 1.4.2 2h-.1c-.4 0-.8 0-1.2.1h-.1c.1-.4 0-1.4.5-1.6h-.2c-.1 0-.1-.1-.2-.1 0-.2 0-.5-.1-.8C4 2.2 4 1.1 5 1.5zM3.7 3.8c-.2 0-.2-.5-.1-.6.3 0 .2.5.1.6zm-.2 1c.1-.3 0-.3.1-.7.2 0 .2.8-.1.7zm.1-3.2h.1v.3s-.1 0-.2-.1v-.1-.1h.1zm-.1.7s.1 0 0 0c.3.1.4.3.2.4-.3.1-.3-.3-.2-.4zm0 3c.1 0 .1.2 0 .2h-.1c.1 0 .1-.1.1-.2zM1.8 1.7c0 .2-.3.2-.4.4-.2-.2.1-.5.4-.4zm-.4.7c.2-.2.3-.3.5-.4l.1-.1c.1-.2.3-.3.5-.3h.4c0 .1 0 .1-.1.1-.2.2-.4.1-.4-.1 0 .2 0 .5-.2.9-.1.4-.4.9-.6 1 0 .1 0 .1-.1.1-.1-.4-.1-.8-.1-1.2zm.1 2.4c0-.5.1-.8.6-1.2.3.6.1 1.3.5 1.9-.4.1-.8.1-1.1.2v-.9zm18.4 10.9c-.1.4-.1.7-.2 1.1-.1.5-.1 1.1-.2 1.7v.2c.1.9-.3 1.2-1.1.9-.5.1-1.1.1-1.7.1-.6 0-1.3-.1-1.8-.1-1.1 0-2.3.1-3.4.1H9.7s0-.1.1-.1c.2-.4.2-.7.1-1.2h-.1c-.7 0-.3.6-.8.9-.6.4-1.1.5-2 .5v-.1c.2-.6 1-1.8.6-1.8-.1 0-.3.1-.7.4-.8.6-.6 1.9-1.9 1.5v-.1c.4-.8 1.4-1.8 1.4-2.6 0 0-.1-.1-.1 0-.6 0-2.6 2.6-3.2 2.9v-.2c.1-.7 1.2-3.4 1.3-3.6-.1 0-.1 0-.2.1-.7.3-1.4 1.7-1.5 2.2l-.1-.1c-.6-.8 1.3-3.2.6-4.1-.2.1-.8.5-.8.6v-.2c0-2.6-.2-5.4-.7-7.9 1.5 0 3.1.1 4.6.2h.2c-1 1.5-1.9 4.1-1.5 6.1.1.5.3 1 .6 1.5 1.6 2.4 5.1 3 7.7 2.5 3.8-.8 6.3-6.9 3.4-9.9-.2-.2-.4-.3-.6-.5.5-.3 2.1 0 2.7.1.5.1.8.1 1 .2.2.1.2.2.3.4v1.1c-.1 2.4.2 4.9-.2 7.2zm.2-10.1s-.1 0 0 0c-.7-.1-1.3-.3-1.9-.4 0 0 .1 0 .1-.1.2-.1.7-.4 1-.6l.2-.2c.4-.8.1-2.1-.5-2.4-.3-.2-.9-.1-1.2 0-.6.1-.8.1-.9.2-.1.1-.2.3-.3.7-.7 1.7.2 1.9 1.4 2.3 0 .1-.2.1-.5.1-1.6.2-6.6-.1-7.8 0h-.2c.1-1.2.1-2.4-.1-3.6h3.1c-.7.7-1.8.9-2.4 1.7.3.2 1.2-.6 1.8-1 .1-.1.2-.2.3-.2 1.2-.6 1.8-.5 3.1-.4H18c.3 0 .5 0 .8.1.1 0 .3.1.4.1.6.2.9.5 1 .9.2.7 0 1.7-.1 2.8z"/><path d="M7.7 13.9c.6.7 1.4 1.1 2.3 1.2 1.9.3 4.1-.5 5-2.1.5-.9.5-2.4.3-3.5v-.3c-.1-.6-.3-1.3-.8-1.7-.1-.1-.5-.3-.8-.5-.1-.1-.2-.1-.2-.1-.1 0-.1-.1-.1-.1-.5-.3-1.1-.4-1.6-.5-3.9-.5-7.1 4-4.1 7.6zm1.2-2.8c-.1-.1-.1-.2-.2-.4.3-.1.2.2.2.4zm.2.4c-.1-.2 0-.1 0 0-.1.1-.1 0 0 0zm.4-2.2c0 .1-.1.1 0 0zm1.3-1.9c0-.2.1-.3.3-.2 0 .1-.1.1-.1.2 0 .2.1.5.2.6-.2 0-.4-.3-.4-.6zm1.4 6.6c.1-.1.1 0 .2 0 0 .1-.2.1-.2 0zm1.8-2.3c.1-.4.2-.6.3-.5 0 0 .1.1.1.3-.1.1-.3.1-.4.2zm-1.8-4.1c.7.2 1.4 0 1.9.7 0 .1.1.1.1.2s.1.1.1.2c.1.3.2.7.2 1.1 0 .7-.2 1.3-.7 1.5-1.1 0-2.5-.4-2.4-1.7v-.3c.1-.6.6-.9.7-1.4.1-.1.1-.2.1-.3zM13.5 3.4h.1c.1 0 .2-.1.3-.1 0 0 .1 0 .1-.1.4-.2.8-.5 1.1-.7-.3 0-1.3.5-1.6.9zM11.2 3.9c.3-.1.6-.3.8-.6-.2.1-.5.2-.6.4-.1.1-.2.1-.2.2z"/></symbol><symbol id="icon-tw" viewBox="52.3 53.8 23.5 20.2"><path fill="none" d="M72.3 60.4c-.2-2-1.3-3.5-3.3-3.6-1.7-.1-3.6.5-4.5 2-.5.8 0 2.2-1 2.4-.9.2-2.1-.7-2.8-1.1-.9-.5-1.9-1-2.8-1.6-.4-.3-.9-.6-1.2-.9-.1-.1-.8-1.3-.9-1.3-.1.6-.2 1.5-.1 2.1.1.6.5.7.9 1.1.8 1-.2 1.1-1 1.6.5.7.8 1.5 1.3 2 .3.3.4.4.7.5.2.1.6 0 .8.3.4.5.1.8-.3 1-.1.1-.7.3-.9.4-.3.2-.7.3-1.1.5.9.5 1.7.7 2.6.9 1.1.1 1 .5.8 1.4-.3 1.1-.7 1.6-1.9 2-.4.1-2.6.4-2.8.7 1.1.4 1.9 1 3 1.2 1.3.2 2.6.3 3.9.2 2.2-.1 4.1-.8 5.6-2.4 1.4-1.4 2.7-2.9 3.5-4.7.3-.8.3-1.4.8-2.1.3-.4.5-.9.6-1.4.2-.2 0-.7.1-1.2zm-3.7-.5c-.1.4-2.4-.4-1.3-1.5 1.3-1.3 2 1.4 1.3 1.5zM71.9 56.9c0 .1.1.1.1.2.4-.1.5-.5.6-.8-.2 0-.8.4-.7.6zM72.6 56.3c.1 0 0-.1 0 0z"/><path d="M75.7 57.9c-.4-.6-1.9-.4-2.5-.4.3-.7.6-1.2.7-1.9.1-.4.7-1.6.2-1.8-.7-.3-1.2.9-1.6 1.3-.3.3-.7.5-1.1.7-.8.5-1.5 0-2.5 0-.9 0-1.9.2-2.7.5-1 .4-2.6 1.5-2.9 2.6-.2.6.3 1-.5.9-.7 0-1.6-.8-2.2-1.1-1.6-.8-3.1-1.6-4.1-3.1-.5-.8-1-1.2-1.5-.1-.6 1.3-1 3.3 0 4.5-2.3.3.4 3.8 1 4.6 0 0-1.1.2-1.2.3-.3.3-.2.9 0 1.3.6 1.3 2.4 1.7 3.7 1.9-.4 1.5-3.6 1.5-4.9 1.7-.7.1-1.7.2-1.2 1.1.3.5 1 .9 1.5 1.2 2 1.2 4.2 1.4 6.5 1.5 1.3.1 2.8.3 4 0 3.4-1 6-4 7.7-6.9.9-1.5 1.6-3 1.5-4.8 0-.5-.1-1-.1-1.5-.2-1-.2-.8.7-1.1.6-.1 1.8-.5 1.5-1.4zm-3.4 4c-.2.9-.8 1.5-1 2.3-.2.8-.4 1.5-.8 2.2-1 1.6-2.3 3.2-3.7 4.3-1.6 1.3-3.4 1.7-5.4 1.7-1.2 0-2.4-.1-3.6-.3-1-.2-1.8-.7-2.8-1.1.2-.4 2.4-.6 2.8-.7 1.2-.4 1.5-.9 1.9-2 .3-.9.3-1.3-.8-1.4-1-.1-1.7-.4-2.6-.9.5-.3 3.1-1 2.2-1.9-.4-.4-1-.3-1.4-.6-.6-.6-1-1.5-1.5-2.2.8-.5 1.9-.6 1-1.6-.3-.3-.7-.5-.9-.9-.2-.6 0-1.8.1-2.4.1 0 .8 1.1.9 1.3.4.4.9.7 1.4 1 .9.6 1.9 1.1 2.8 1.7.7.4 2.1 1.3 2.9.8.6-.4.3-.8.4-1.4.1-.7.4-1.1.9-1.5 1.2-1.1 2.9-1.6 4.5-1.4 2.3.2 2.9 3 2.7 5zm.3-5.6c-.1.3-.2.7-.6.8-.1-.4.3-.7.6-.8z"/><path d="M67.1 59.3c.7.5 2 1.2 1.7-.4-.2-1.3-2-.9-1.7.4z"/></symbol></svg>