<svg xmlns="http://www.w3.org/2000/svg" xmlns:xlink="http://www.w3.org/1999/xlink" style="display:none"><symbol id="icon-arrow"><path d="M345.441 248.292L151.154 442.573c-12.359 12.365-32.397 12.365-44.75 0-12.354-12.354-12.354-32.391 0-44.744L278.318 225.92 106.409 54.017c-12.354-12.359-12.354-32.394 0-44.748 12.354-12.359 32.391-12.359 44.75 0l194.287 194.284c6.177 6.18 9.262 14.271 9.262 22.366 0 8.099-3.091 16.196-9.267 22.373z"/></symbol><symbol id="icon-insta"><path d="M122.406 0H46.654C20.929 0 0 20.93 0 46.655v75.752c0 25.726 20.929 46.655 46.654 46.655h75.752c25.727 0 46.656-20.93 46.656-46.655V46.655C169.063 20.93 148.133 0 122.406 0zm31.657 122.407c0 17.455-14.201 31.655-31.656 31.655H46.654C29.2 154.063 15 139.862 15 122.407V46.655C15 29.201 29.2 15 46.654 15h75.752c17.455 0 31.656 14.201 31.656 31.655v75.752z"/><path d="M84.531 40.97c-24.021 0-43.563 19.542-43.563 43.563 0 24.02 19.542 43.561 43.563 43.561s43.563-19.541 43.563-43.561c0-24.021-19.542-43.563-43.563-43.563zm0 72.123c-15.749 0-28.563-12.812-28.563-28.561 0-15.75 12.813-28.563 28.563-28.563s28.563 12.813 28.563 28.563c0 15.749-12.814 28.561-28.563 28.561zm45.39-84.842c-2.89 0-5.729 1.17-7.77 3.22a11.053 11.053 0 0 0-3.23 7.78c0 2.891 1.18 5.73 3.23 7.78 2.04 2.04 4.88 3.22 7.77 3.22 2.9 0 5.73-1.18 7.78-3.22 2.05-2.05 3.22-4.89 3.22-7.78 0-2.9-1.17-5.74-3.22-7.78-2.04-2.05-4.88-3.22-7.78-3.22z"/></symbol><symbol id="icon-tw" viewBox="0 -47 512 512"><path d="M512 55.965c-32.207 1.484-31.504 1.363-35.145 1.668L495.93 3.16s-59.54 21.902-74.633 25.82c-39.64-35.628-98.563-37.203-140.688-11.312-34.496 21.207-53.011 57.625-46.836 100.191C166.637 108.543 110.07 76.72 65.41 23.07L51.285 6.105 40.73 25.488C27.39 49.98 22.96 77.984 28.254 104.34a113.287 113.287 0 0 0 10.976 30.78l-12.117-4.695-1.437 20.246c-1.457 20.566 5.39 44.574 18.32 64.215a114.185 114.185 0 0 0 14.27 17.597l-6.262-.96 7.64 23.199c10.043 30.48 30.903 54.062 57.973 67.172-27.035 11.472-48.875 18.793-84.773 30.601L0 363.293l30.336 16.586c11.566 6.324 52.437 27.445 92.82 33.781 89.766 14.078 190.832 2.613 258.871-58.664 57.309-51.613 76.114-125.031 72.207-201.433-.59-11.567 2.579-22.606 8.922-31.079 12.707-16.964 48.766-66.406 48.844-66.52zm-72.832 48.55c-10.535 14.067-15.813 32.032-14.867 50.579 3.941 77.066-17.028 136.832-62.328 177.629-52.918 47.66-138.274 66.367-234.172 51.324-17.367-2.723-35.317-8.82-50.172-14.91 30.098-10.356 53.34-19.586 90.875-37.352l52.398-24.8-57.851-3.704c-27.711-1.773-50.785-15.203-64.969-37.008a103.763 103.763 0 0 0 22.023-3.671l55.176-15.368-55.636-13.625c-27.036-6.62-42.446-22.797-50.614-35.203-5.363-8.152-8.867-16.504-10.969-24.203 5.579 1.496 12.083 2.563 22.57 3.602l51.497 5.093-40.8-31.828c-29.4-22.93-41.18-57.379-32.544-90.496 91.75 95.164 199.477 88.012 210.32 90.528-2.386-23.184-2.449-23.239-3.074-25.446-13.886-49.09 16.547-74.015 30.274-82.453 28.672-17.621 74.183-20.277 105.707 8.754 6.808 6.266 16.015 8.73 24.633 6.59 7.734-1.922 14.082-3.957 20.296-6.172L434.004 89.32l16.516.012a8240.32 8240.32 0 0 1-11.352 15.184zm0 0"/></symbol><symbol id="icon-vk" viewBox="1 -104 511.999 511"><path d="M456.738 202.102l-.277-.258c-4.371-4.035-17.762-17.067-22.277-22.762-5.301-7.105-4.079-11.762-.106-18.738 5.02-8.817 15.078-22.34 25.723-36.66 34.094-45.852 56.105-77.594 51.574-100.141L508.934 11.5l-125.91.055c-.442 1.187-7.012 30.05-34.739 79.199-20.105 35.637-33.293 46.832-37.937 48.808l-.72-.218c-1.51-1.867-4.151-6.906-5.237-19.895-1.133-13.605-.13-30.078.843-46.008 1.137-18.68 2.118-34.812-.23-46.355L301.18 8.28c-4.621-.738-21.54-7.265-68.676-7.761-40.809-.418-52.797 5.476-58.684 10.671l-19.472 17.184 24.613 8.281c9.367 3.153 12.476 6.79 15.027 24.817 1.664 11.75 2.535 31.496.739 49.125-2.582 25.277-8.774 29.98-9.094 30.23-1.067-.363-10.11-4.32-25.809-37.512-10.89-23.02-20.437-50.25-27.414-70.132-7.984-22.77-6.547-17.922-10.598-28.68L0 4.5l7.883 20.39c32.863 85.09 63.015 151.54 103.367 199.266 44.582 52.73 99.988 80.34 174.621 80.34h15v-15c0-14.023 1.16-24.121 3.649-31.777 1.52-4.664 3.539-8.52 5.66-12.563 3.148-5.953 6.226-8.504 7.906-8.883 1.523-.347 4.203.77 7.172 2.985 8.523 6.355 15.289 14.707 22.453 23.55 10.336 12.762 21.023 25.954 37.98 34.59 9.266 4.72 26.25 7.102 35.598 7.102l90.711-.004-.645-15.617c-.96-23.352-19.34-52.55-54.617-86.777zm-34.867 72.394h-.242c-6.445.106-18.746-2.008-22.324-3.828-11.274-5.742-19.153-15.473-28.282-26.738-8.011-9.895-16.296-20.125-27.832-28.723-9.328-6.957-17.8-8.992-24.527-8.992-2.687 0-5.102.324-7.172.793-7.808 1.758-18.976 7.375-27.855 24.168-2.504 4.777-5.344 10.187-7.645 17.265-2.41 7.407-3.91 15.637-4.625 25.649-56.242-3.195-100.129-25.445-137.207-69.3-34.472-40.778-61.594-97.813-90.316-170.302l57.226.008c.942 2.645 1.957 5.543 3.035 8.613 7.52 21.45 17.82 50.82 29.957 75.868 17.38 35.867 33.25 51.863 51.458 51.863 9.09 0 17.242-3.852 23.574-11.145 9.027-10.394 14.27-27.55 16.027-52.453 1.387-19.637.098-39.195-1.426-49.972-1.257-8.868-3.05-18.176-7.425-26.516 18.644-.84 43.609.488 59.425 2.758 1.438 7.828.5 23.215-.406 38.101-2.191 35.961-4.453 73.07 14.582 90.434 3.348 3.055 6.899 4.691 7 4.758l9.688 2.972c3.738-1.152 25.39 9.832 66.39-61.718 13.137-22.926 25.367-49.344 31.953-66.598 15.274-.031 67.309.027 73.422.035-8.66 19.059-29.183 46.242-42.597 64.285-11.696 15.727-21.793 29.309-27.72 39.715-11.007 19.332-9.155 36.563 2.31 51.762l.18.234c6.398 8.145 22.198 23.223 25.476 26.262 23.742 23.05 35.183 39.61 40.629 50.738h-54.73zm0 0"/></symbol></svg>