<svg xmlns="http://www.w3.org/2000/svg" viewBox="0 0 33 32"><path fill="#f50049" d="M31.239 14.755h-.806v15.52c0 .951-.79 1.725-1.76 1.725H4.327c-.971 0-1.76-.774-1.76-1.725v-15.52h-.806C.79 14.755 0 13.981 0 13.03V8.936c0-.951.79-1.725 1.761-1.725h4.577a4.39 4.39 0 0 1-1.205-3.016s.001-.178.003-.228c.049-1.435.848-2.714 2.136-3.423a4.31 4.31 0 0 1 4.187.001l2.082 1.151A7.182 7.182 0 0 1 16.5 4.781a7.182 7.182 0 0 1 2.959-3.085L21.541.545a4.31 4.31 0 0 1 4.187-.001c1.288.709 2.087 1.988 2.136 3.423.002.05.003.228.003.228a4.388 4.388 0 0 1-1.205 3.016h4.577c.971 0 1.761.774 1.761 1.725v4.094c0 .951-.79 1.725-1.761 1.725zM19.8 16.941h2.794c.405 0 .734.322.734.719a.726.726 0 0 1-.734.718H19.8v12.185h8.873a.291.291 0 0 0 .294-.288v-15.52H19.8v2.186zM4.033 30.275c0 .159.132.288.294.288H13.2V18.378h-3.019a.725.725 0 0 1-.733-.718c0-.397.328-.719.733-.719H13.2v-2.186H4.033v15.52zM1.761 8.648a.291.291 0 0 0-.294.288v4.094a.29.29 0 0 0 .294.288H13.2v-4.67H1.761zM12.82 2.947l-2.082-1.151a2.825 2.825 0 0 0-2.748.001c-.837.461-1.356 1.29-1.388 2.218l-.002.18c0 1.663 1.381 3.016 3.078 3.016h6.047a5.686 5.686 0 0 0-2.905-4.264zm1.847 5.701v21.915h3.666V8.648h-3.666zm11.731-4.633c-.032-.928-.551-1.757-1.388-2.218a2.83 2.83 0 0 0-2.748-.001L20.18 2.947a5.686 5.686 0 0 0-2.905 4.264h6.047c1.697 0 3.078-1.353 3.078-3.016l-.002-.18zm5.135 4.921a.29.29 0 0 0-.294-.288H19.8v4.67h11.439a.291.291 0 0 0 .294-.288V8.936zM6.698 18.378h-.074a.725.725 0 0 1-.733-.718c0-.397.328-.719.733-.719h.074c.405 0 .733.322.733.719a.725.725 0 0 1-.733.718zm19.453 0h-.073a.726.726 0 0 1-.734-.718c0-.397.329-.719.734-.719h.073c.405 0 .733.322.733.719a.725.725 0 0 1-.733.718z"/></svg>